<svg xmlns="http://www.w3.org/2000/svg" fill="none" viewBox="0 0 121 19">
    <path fill="#FFF9D4"
        d="m32.308 15.556-4.353-5.217 3.79-4.506h-3.509L25.142 9.76l-1.389 1.795h-.075l.057-1.833V3.79a1.51 1.51 0 0 0-3.021 0v11.766h2.852l2.627-3.122 2.57 3.122h3.546Z" />
    <path fill="#FFF9D4"
        d="M37.244 5.552c-2.965 0-4.879.767-4.785 3.291h2.683c.131-.785.694-1.047 1.97-1.047 1.389 0 1.97.318 1.97 1.253v.748h-3.396c-2.551 0-3.733.972-3.733 2.936 0 2.075 1.313 3.104 3.433 3.104 1.614 0 3.415-.598 4.24-1.982l-.337.692.262 1.01h2.552V8.73c0-2.094-1.482-3.179-4.86-3.179Zm-.77 8.022c-1.05 0-1.444-.392-1.444-.99 0-.618.394-.954 1.144-.954h2.908v1.14c-.638.524-1.52.804-2.476.804h-.132ZM49.682 5.571c-1.501 0-2.759.598-3.753 2.3l.544-1.028-.056-1.01h-2.965V18.81h3.021v-4.45c.788 1.066 1.933 1.477 3.209 1.477 2.926 0 4.803-2.281 4.803-5.142 0-2.843-1.877-5.124-4.803-5.124Zm-.713 7.63c-1.558 0-2.533-1.048-2.533-2.506 0-1.459.975-2.506 2.533-2.506 1.557 0 2.514 1.047 2.514 2.506 0 1.458-.957 2.505-2.514 2.505ZM61.574 5.571c-1.501 0-2.758.598-3.753 2.3l.544-1.028-.056-1.01h-2.965V18.81h3.021v-4.45c.788 1.066 1.933 1.477 3.209 1.477 2.927 0 4.803-2.281 4.803-5.142 0-2.843-1.876-5.124-4.803-5.124Zm-.713 7.63c-1.558 0-2.533-1.048-2.533-2.506 0-1.459.975-2.506 2.533-2.506 1.557 0 2.514 1.047 2.514 2.506 0 1.458-.957 2.505-2.514 2.505ZM74.446 8.395V5.833h-2.72V2.467h-3.021v3.366h-2.158v2.562h2.158v3.72c0 2.207 1.05 3.535 3.865 3.535h1.876v-2.693h-1.313c-.938 0-1.407-.336-1.407-1.327V8.395h2.72ZM75.446 15.556h3.02V5.833a3.333 3.333 0 0 1-3.02 0v9.723ZM83.128 15.556h3.227l4.165-9.723h-3.133l-2.59 6.357h-.112l-2.57-6.357H78.98l4.147 9.723ZM95.257 5.552c-2.965 0-4.878.767-4.785 3.291h2.684c.13-.785.694-1.047 1.97-1.047 1.388 0 1.97.318 1.97 1.253v.748H93.7c-2.552 0-3.734.972-3.734 2.936 0 2.075 1.313 3.104 3.433 3.104 1.614 0 3.415-.598 4.24-1.982l-.337.692.263 1.01h2.551V8.73c0-2.094-1.482-3.179-4.86-3.179Zm-.77 8.022c-1.05 0-1.444-.392-1.444-.99 0-.618.394-.954 1.144-.954h2.909v1.14c-.638.524-1.52.804-2.477.804h-.131ZM108.474 8.395V5.833h-2.721V2.467h-3.02v3.366h-2.158v2.562h2.158v3.72c0 2.207 1.05 3.535 3.865 3.535h1.876v-2.693h-1.314c-.938 0-1.407-.336-1.407-1.327V8.395h2.721ZM111.934 11.592h7.617c.301-3.796-1.801-6.04-5.253-6.04-3.471 0-5.403 2.244-5.403 5.143 0 2.898 2.082 5.142 5.572 5.142 1.982 0 3.575-.726 4.508-1.697.667-.692-.008-1.594-.969-1.594-.621 0-1.203.413-1.767.673-.462.214-1.057.318-1.603.318-1.501 0-2.458-.73-2.702-1.945Zm2.364-3.833c1.257 0 2.008.56 2.289 2.02h-4.672c.225-1.328.995-2.02 2.383-2.02ZM2.995 10.572c.36.98.955 1.362 1.82 1.61l.168-.26c.184-.292.254-.697.274-1.065.008-.202.04-.412.273-.496a.424.424 0 0 1 .543.264.917.917 0 0 1 .047.353c-.018.323-.111.962-.426 1.42l-.497.73c-.533.78-.766 1.36-.532 2 .427 1.164 1.509 1.631 2.481 1.28.41-.148.961-.582 1.282-1.195l.842-1.578c.2-.37.283-1.015.273-1.364-.006-.214.068-.386.277-.461a.434.434 0 0 1 .554.27c.032.087.03.206.028.324-.002.217.012.854-.405 1.7 1.517.59 2.015.582 2.65.353.908-.328 1.524-1.454 1.14-2.5-.187-.51-.517-.815-1.15-1.102l-1.08-.486a7.045 7.045 0 0 1-1.27-.787.505.505 0 0 1-.214-.258.421.421 0 0 1 .25-.533.426.426 0 0 1 .417.067c.53.404 1.059.728 1.458.9l1.27-.459c1.27-.459 1.852-1.6 1.4-2.836-.457-1.245-1.643-1.747-2.912-1.288L4.458 7.884c-1.27.459-1.86 1.603-1.463 2.688Z" />
    <ellipse cx="6.453" cy="3.583" fill="#FFF9D4" rx="2.32" ry="2.304" />
    <ellipse cx="76.933" cy="3.087" fill="#ED7846" rx="2.249" ry="2.232" />
</svg>