<svg xmlns="http://www.w3.org/2000/svg" fill="none" viewBox="0 0 16 16">
    <path fill="#1C4A47" fill-rule="evenodd"
        d="M5.784 5.128a2.064 2.064 0 1 0 0-4.128 2.064 2.064 0 0 0 0 4.128Zm-1.457 5.639c-.769-.222-1.298-.564-1.618-1.443-.354-.972.172-1.997 1.301-2.408l6.668-2.427c1.13-.41 2.184.04 2.59 1.154.403 1.108-.116 2.13-1.245 2.541l-1.13.411c-.355-.154-.825-.444-1.296-.806a.377.377 0 0 0-.593.418c.042.114.1.165.19.23.358.274.74.524 1.13.706l.96.435c.563.257.857.53 1.023.988.34.936-.207 1.945-1.014 2.239-.565.205-1.007.212-2.357-.316.355-.726.359-1.279.36-1.496v-.027c.002-.106.004-.212-.025-.29a.385.385 0 0 0-.492-.242c-.186.067-.252.22-.246.413.008.312-.065.89-.244 1.222l-.748 1.413c-.286.55-.776.938-1.14 1.07-.865.316-1.827-.103-2.207-1.147-.208-.572 0-1.092.474-1.79l.441-.655c.28-.41.363-.982.38-1.271a.827.827 0 0 0-.043-.317.377.377 0 0 0-.483-.237c-.207.075-.236.264-.243.445-.017.33-.08.692-.243.954l-.15.233Z"
        clip-rule="evenodd" />
</svg>